<svg xmlns="http://www.w3.org/2000/svg" viewBox="0 0 760 560" font-family="Helvetica,Arial,sans-serif">
  <defs>
    <style>
      .bg{fill:#e9f4f4;}
      .blk{fill:#ffffff;stroke:#2f8f8f;stroke-width:2;rx:6;}
      .accent{fill:#2f8f8f;}
      .lite{fill:#d4ebeb;stroke:#2f8f8f;stroke-width:1.5;}
      .t{fill:#14504f;font-size:13px;}
      .tb{fill:#14504f;font-size:13px;font-weight:bold;}
      .ts{fill:#14504f;font-size:11px;}
      .tw{fill:#ffffff;font-size:13px;font-weight:bold;}
      .ln{stroke:#2f8f8f;stroke-width:1.8;fill:none;}
      .lnd{stroke:#2f8f8f;stroke-width:1.5;fill:none;stroke-dasharray:5 3;}
    </style>
    <marker id="ah" markerWidth="9" markerHeight="9" refX="7" refY="4.5" orient="auto">
      <path d="M0,0 L9,4.5 L0,9 z" fill="#2f8f8f"/>
    </marker>
  </defs>

  <rect class="bg" x="0" y="0" width="760" height="560"/>
  <text x="30" y="34" class="tb" font-size="19">Ethernet MAC 10/100 (TSN family v1) — RV32IM SoC v3 / TE0950</text>
  <text x="30" y="54" class="ts">MII @ 25 MHz, nibble datapath, HW CRC-32, LOOP_INT self-test</text>

  <!-- PS / DDR -->
  <rect class="blk" x="30" y="80" width="150" height="70" rx="6"/>
  <text x="42" y="104" class="tb">Versal PS</text>
  <text x="42" y="122" class="ts">A72 + axil_soc</text>
  <text x="42" y="138" class="ts">ctrl 0x8000_0000</text>

  <rect class="blk" x="30" y="470" width="150" height="60" rx="6"/>
  <text x="42" y="494" class="tb">LPDDR4</text>
  <text x="42" y="512" class="ts">rv32i_reserved 0x7000_0000</text>

  <!-- RV32 core -->
  <rect class="blk" x="230" y="80" width="150" height="70" rx="6"/>
  <text x="244" y="104" class="tb">RV32IM core</text>
  <text x="244" y="122" class="ts">5-stage pipeline</text>
  <text x="244" y="138" class="ts">imem / dmem bus</text>

  <!-- mem_subsys -->
  <rect class="blk" x="230" y="200" width="150" height="80" rx="6"/>
  <text x="244" y="224" class="tb">mem_subsys_eth</text>
  <text x="244" y="242" class="ts">decode addr[31:28]</text>
  <text x="244" y="258" class="ts">1101 -> ETH MMIO</text>
  <text x="244" y="274" class="ts">0100 -> DMA burst</text>

  <!-- DMA -->
  <rect class="blk" x="30" y="200" width="150" height="80" rx="6"/>
  <text x="42" y="224" class="tb">dma_burst</text>
  <text x="42" y="242" class="ts">AXI4 INCR &lt;=16</text>
  <text x="42" y="258" class="ts">local -&gt; DDR</text>
  <text x="42" y="274" class="ts">ddr_base + dst</text>

  <!-- ETH MMIO block -->
  <rect class="accent" x="430" y="80" width="300" height="200" rx="8"/>
  <text x="446" y="104" class="tw" font-size="15">eth_mmio  (0xD000_0000)</text>
  <rect class="lite" x="446" y="116" width="128" height="46"/>
  <text x="456" y="134" class="ts">TXD/RXD FIFOs</text>
  <text x="456" y="150" class="ts">spw_fifo W=9 (EOF)</text>
  <rect class="lite" x="586" y="116" width="128" height="46"/>
  <text x="596" y="134" class="ts">CTRL/MAC/STAT</text>
  <text x="596" y="150" class="ts">IRQEN, stickies</text>
  <rect class="lite" x="446" y="172" width="268" height="40"/>
  <text x="456" y="190" class="ts">store-and-forward: frames_pending (EOF count)</text>
  <text x="456" y="205" class="ts">IRQ = OR(STAT and IRQEN)  |  pop-on-read RXD</text>
  <rect class="lite" x="446" y="222" width="268" height="46"/>
  <text x="456" y="240" class="ts">rdata COMBINATIONAL (dmem contract)</text>
  <text x="456" y="256" class="ts">EN=0 -> FIFO flush ; sel/we ; arstn=not rst</text>

  <!-- MAC core -->
  <rect class="accent" x="430" y="310" width="300" height="150" rx="8"/>
  <text x="446" y="334" class="tw" font-size="15">eth_mac  (MII datapath)</text>
  <rect class="lite" x="446" y="346" width="128" height="50"/>
  <text x="456" y="364" class="tb" font-size="12">eth_tx_mii</text>
  <text x="456" y="380" class="ts">pre+SFD+CRC+IPG</text>
  <rect class="lite" x="586" y="346" width="128" height="50"/>
  <text x="596" y="364" class="tb" font-size="12">eth_rx_mii</text>
  <text x="596" y="380" class="ts">SFD+FCS+filter</text>
  <rect class="lite" x="446" y="404" width="268" height="44"/>
  <text x="456" y="422" class="tb" font-size="12">mii_ce /4 (25 MHz)  +  LOOP_INT mux</text>
  <text x="456" y="438" class="ts">loopback: TXD-&gt;RXD, TX_EN-&gt;RX_DV in PL</text>

  <!-- MII pads -->
  <rect class="blk" x="620" y="486" width="110" height="54" rx="6"/>
  <text x="632" y="508" class="tb" font-size="12">MII pads</text>
  <text x="632" y="524" class="ts">bank 302 HDIO</text>
  <text x="632" y="537" class="ts">(inert in v1)</text>

  <!-- arrows -->
  <line class="ln" x1="180" y1="115" x2="230" y2="115" marker-end="url(#ah)"/>
  <text x="186" y="110" class="ts">AXI-Lite</text>
  <line class="ln" x1="305" y1="150" x2="305" y2="200" marker-end="url(#ah)"/>
  <line class="ln" x1="230" y1="240" x2="180" y2="240" marker-end="url(#ah)"/>
  <line class="ln" x1="380" y1="180" x2="430" y2="180" marker-end="url(#ah)"/>
  <text x="384" y="174" class="ts">sel/we/rdata</text>
  <line class="ln" x1="105" y1="280" x2="105" y2="470" marker-end="url(#ah)"/>
  <text x="110" y="380" class="ts">DMA doorbell</text>
  <line class="ln" x1="580" y1="280" x2="580" y2="310" marker-end="url(#ah)"/>
  <text x="586" y="298" class="ts">byte-stream</text>
  <line class="lnd" x1="675" y1="460" x2="675" y2="486" marker-end="url(#ah)"/>

  <!-- loop_int note -->
  <path class="lnd" d="M 714 371 C 745 371 745 425 714 425" marker-end="url(#ah)"/>
  <text x="700" y="400" class="ts" transform="rotate(90 700 400)">LOOP_INT</text>

  <text x="30" y="552" class="ts">Silicon PASS: 8/8 signature @ 0x7000_0000  |  WNS +3.133 ns  |  MTU 1518  |  MIT license</text>
</svg>
